<svg width="1448" height="662" viewBox="0 0 1448 662" fill="none" xmlns="http://www.w3.org/2000/svg">
<g filter="url(#filter0_di_111_5)">
<path fill-rule="evenodd" clip-rule="evenodd" d="M-36 559.169L14.4 524.892C64.8 490.614 165.6 422.06 266.4 387.783C367.2 353.506 468 353.506 568.8 387.783C669.6 422.06 770.4 490.614 871.2 482.045C972 473.476 1072.8 387.783 1173.6 353.506C1274.4 319.229 1375.2 336.367 1425.6 344.937L1476 353.506L1476 662L1425.6 662C1375.2 662 1274.4 662 1173.6 662C1072.8 662 972 662 871.2 662C770.4 662 669.6 662 568.8 662C468 662 367.2 662 266.4 662C165.6 662 64.8 662 14.4 662L-36 662L-36 559.169Z" fill="white"/>
</g>
<defs>
<filter id="filter0_di_111_5" x="-190" y="0" width="1820" height="666" filterUnits="userSpaceOnUse" color-interpolation-filters="sRGB">
<feFlood flood-opacity="0" result="BackgroundImageFix"/>
<feColorMatrix in="SourceAlpha" type="matrix" values="0 0 0 0 0 0 0 0 0 0 0 0 0 0 0 0 0 0 127 0" result="hardAlpha"/>
<feOffset dy="-179"/>
<feGaussianBlur stdDeviation="77"/>
<feColorMatrix type="matrix" values="0 0 0 0 0 0 0 0 0 0 0 0 0 0 0 0 0 0 0.13 0"/>
<feBlend mode="normal" in2="BackgroundImageFix" result="effect1_dropShadow_111_5"/>
<feBlend mode="normal" in="SourceGraphic" in2="effect1_dropShadow_111_5" result="shape"/>
<feColorMatrix in="SourceAlpha" type="matrix" values="0 0 0 0 0 0 0 0 0 0 0 0 0 0 0 0 0 0 127 0" result="hardAlpha"/>
<feOffset dy="4"/>
<feGaussianBlur stdDeviation="2"/>
<feComposite in2="hardAlpha" operator="arithmetic" k2="-1" k3="1"/>
<feColorMatrix type="matrix" values="0 0 0 0 0 0 0 0 0 0 0 0 0 0 0 0 0 0 0.25 0"/>
<feBlend mode="normal" in2="shape" result="effect2_innerShadow_111_5"/>
</filter>
</defs>
</svg>
