<svg width="1448" height="418" viewBox="0 0 1448 418" fill="none" xmlns="http://www.w3.org/2000/svg">
<path fill-rule="evenodd" clip-rule="evenodd" d="M0 0L40.2222 47C112.448 132.5 160.889 186 241.333 194C321.778 201 402.222 124 482.667 101C563.111 78 643.556 109 724 147C804.444 186 884.889 232 965.333 240C1045.78 248 1104.24 254 1206.67 211.5C1324.99 167 1394.21 110 1434.44 79L1448 65.5V418H1407.78C1367.56 418 1287.11 418 1206.67 418C1126.22 418 1045.78 418 965.333 418C884.889 418 804.444 418 724 418C643.556 418 563.111 418 482.667 418C402.222 418 321.778 418 241.333 418C160.889 418 80.4444 418 40.2222 418H0V0Z" fill="#E7E9EB"/>
</svg>
